# Blender v2.90.0 OBJ File: 'gameAndWatchFrame.blend'
# www.blender.org
mtllib Trim.mtl
o Cube.002
v -1.489755 6.344448 -11.500525
v -1.489755 -6.344448 -11.500525
v -1.489755 6.344448 11.500525
v -1.489755 -6.344448 11.500525
v 1.365425 6.709272 -12.161839
v 1.365425 -6.709272 -12.161839
v 1.365425 6.709272 12.161839
v 1.365425 -6.709272 12.161839
v -1.790092 6.709272 -12.161839
v -1.790092 -6.709272 -12.161839
v -1.790092 6.709272 12.161839
v -1.790092 -6.709272 12.161839
v 1.365425 -6.344448 -11.500525
v 1.365425 -6.344448 11.500525
v 1.365425 6.344448 -11.500525
v 1.365425 6.344448 11.500525
v 1.672235 6.709272 -12.161839
v 1.672235 -6.709272 -12.161839
v 1.672235 6.709272 12.161839
v 1.672235 -6.709272 12.161839
v 1.672235 6.344448 -11.500525
v 1.672235 -6.344448 -11.500525
v 1.672235 -6.344448 11.500525
v 1.672235 6.344448 11.500525
vt 0.375000 0.500000
vt 0.375000 0.750000
vt 0.625000 0.750000
vt 0.625000 0.500000
vt 0.375000 1.000000
vt 0.614213 1.000000
vt 0.614213 0.750000
vt 0.625000 0.500000
vt 0.625000 0.739213
vt 0.875000 0.739213
vt 0.875000 0.500000
vt 0.375000 0.000000
vt 0.625000 0.000000
vt 0.625000 0.250000
vt 0.375000 0.250000
vt 0.375000 0.250000
vt 0.625000 0.250000
vt 0.625000 0.500000
vt 0.375000 0.500000
vt 0.625000 0.750000
vt 0.375000 0.750000
vt 0.625000 0.750000
vt 0.625000 1.000000
vt 0.375000 1.000000
vt 0.385787 0.250000
vt 0.385787 0.000000
vt 0.385787 0.000000
vt 0.385787 0.250000
vt 0.625000 0.500000
vt 0.875000 0.500000
vt 0.875000 0.750000
vt 0.375000 0.260787
vt 0.625000 0.260787
vt 0.625000 0.250000
vt 0.625000 0.000000
vt 0.375000 0.250000
vt 0.375000 0.000000
vt 0.125000 0.500000
vt 0.375000 0.500000
vt 0.368203 0.506797
vt 0.131797 0.506797
vt 0.131797 0.743203
vt 0.125000 0.750000
vt 0.368203 0.743203
vt 0.375000 0.750000
vt 0.625000 0.739213
vt 0.875000 0.739213
vt 0.625000 0.260787
vt 0.375000 0.260787
vt 0.375000 0.250000
vt 0.625000 0.250000
vt 0.614213 1.000000
vt 0.614213 0.750000
vt 0.875000 0.750000
vt 0.625000 0.750000
vt 0.625000 1.000000
vn 1.0000 0.0000 0.0000
vn 0.0000 1.0000 -0.0000
vn 0.0000 0.0000 1.0000
vn -1.0000 0.0000 0.0000
vn 0.0000 -1.0000 0.0000
vn 0.0000 0.0000 -1.0000
usemtl Material
s off
f 4/1/1 2/2/1 1/3/1 3/4/1
f 2/2/2 4/5/2 14/6/2 13/7/2
f 2/8/3 13/9/3 15/10/3 1/11/3
f 5/12/2 9/13/2 11/14/2 7/15/2
f 8/16/3 7/17/3 11/18/3 12/19/3
f 12/19/4 11/18/4 9/20/4 10/21/4
f 10/21/5 6/22/5 8/23/5 12/24/5
f 16/25/5 15/26/5 21/27/5 24/28/5
f 10/29/6 9/30/6 5/31/6 6/22/6
f 14/32/6 4/1/6 3/4/6 16/33/6
f 16/25/5 3/34/5 1/35/5 15/26/5
f 5/12/2 7/15/2 19/36/2 17/37/2
f 18/38/1 17/39/1 21/40/1 22/41/1 23/42/1 20/43/1
f 20/43/1 23/42/1 24/44/1 21/40/1 17/39/1 19/45/1
f 15/10/3 13/9/3 22/46/3 21/47/3
f 14/32/6 16/33/6 24/48/6 23/49/6
f 7/17/3 8/16/3 20/50/3 19/51/3
f 13/7/2 14/6/2 23/52/2 22/53/2
f 6/22/6 5/31/6 17/54/6 18/55/6
f 8/23/5 6/22/5 18/55/5 20/56/5
o Cube.003
v -0.556774 4.987062 -6.236772
v -0.556774 -4.987062 -6.236772
v -0.556774 4.987062 6.236772
v -0.556774 -4.987062 6.236772
v 1.745467 5.343204 -6.682160
v 1.745467 -5.343204 -6.682160
v 1.745467 5.343204 6.682160
v 1.745467 -5.343204 6.682160
v -0.757780 5.343204 -6.682160
v -0.757780 -5.343204 -6.682160
v -0.757780 5.343204 6.682160
v -0.757780 -5.343204 6.682160
v 1.745467 -4.987062 -6.236772
v 1.745467 -4.987062 6.236772
v 1.745467 4.987062 -6.236772
v 1.745467 4.987062 6.236772
vt 0.375000 0.500000
vt 0.375000 0.750000
vt 0.625000 0.750000
vt 0.625000 0.500000
vt 0.375000 1.000000
vt 0.621345 1.000000
vt 0.621345 0.750000
vt 0.625000 0.500000
vt 0.625000 0.746345
vt 0.875000 0.746345
vt 0.875000 0.500000
vt 0.375000 0.000000
vt 0.625000 0.000000
vt 0.625000 0.250000
vt 0.375000 0.250000
vt 0.375000 0.250000
vt 0.625000 0.250000
vt 0.625000 0.500000
vt 0.375000 0.500000
vt 0.625000 0.750000
vt 0.375000 0.750000
vt 0.625000 0.750000
vt 0.625000 1.000000
vt 0.375000 1.000000
vt 0.125000 0.500000
vt 0.375000 0.500000
vt 0.366668 0.508332
vt 0.133332 0.508332
vt 0.133332 0.741668
vt 0.125000 0.750000
vt 0.625000 0.500000
vt 0.875000 0.500000
vt 0.875000 0.750000
vt 0.375000 0.253655
vt 0.625000 0.253655
vt 0.378655 0.250000
vt 0.625000 0.250000
vt 0.625000 0.000000
vt 0.378655 0.000000
vt 0.366668 0.741668
vt 0.375000 0.750000
vn 1.0000 0.0000 0.0000
vn 0.0000 1.0000 0.0000
vn 0.0000 0.0000 1.0000
vn -1.0000 0.0000 0.0000
vn 0.0000 -1.0000 0.0000
vn 0.0000 0.0000 -1.0000
usemtl Material
s off
f 28/57/7 26/58/7 25/59/7 27/60/7
f 26/58/8 28/61/8 38/62/8 37/63/8
f 26/64/9 37/65/9 39/66/9 25/67/9
f 29/68/8 33/69/8 35/70/8 31/71/8
f 32/72/9 31/73/9 35/74/9 36/75/9
f 36/75/10 35/74/10 33/76/10 34/77/10
f 34/77/11 30/78/11 32/79/11 36/80/11
f 30/81/7 29/82/7 39/83/7 37/84/7 38/85/7 32/86/7
f 34/87/12 33/88/12 29/89/12 30/78/12
f 38/90/12 28/57/12 27/60/12 40/91/12
f 40/92/11 27/93/11 25/94/11 39/95/11
f 32/86/7 38/85/7 40/96/7 39/83/7 29/82/7 31/97/7
