# Blender v2.90.0 OBJ File: 'gameAndWatchFrame.blend'
# www.blender.org
mtllib baseTop.mtl
o Cube.009
v 0.595280 9.274115 11.027402
v 0.595280 19.368811 11.027402
v 0.595280 9.274115 6.986126
v 0.595280 19.368811 6.986126
v 0.595280 9.274115 -7.080193
v 0.595280 19.368811 -7.080193
v 0.595280 9.274115 -11.121469
v 0.595280 19.368811 -11.121469
v -0.622227 18.168852 -5.958470
v -0.622227 8.639799 -5.958470
v -0.622227 18.168852 5.958470
v -0.622227 8.639799 5.958470
v -1.000000 7.090450 11.802496
v -1.000000 20.325832 11.802496
v -1.000000 7.090450 -11.802496
v -1.000000 20.325832 -11.802496
v 1.000000 7.090450 11.802496
v 1.000000 20.325832 11.802496
v 1.000000 7.090450 -11.802496
v 1.000000 20.325832 -11.802496
v 1.000000 18.168852 -5.958470
v 1.000000 18.168852 5.958470
v 1.000000 8.639799 5.958470
v 1.000000 8.639799 -5.958470
v 1.000000 9.274115 -7.080193
v 1.000000 19.368811 -7.080193
v 1.000000 19.368811 -9.209585
v 1.000000 19.368811 -11.121469
v 1.000000 9.274115 -11.121469
v 1.000000 18.582870 -7.080193
v 1.000000 9.274115 11.027402
v 1.000000 19.368811 11.027402
v 1.000000 19.368811 6.986126
v 1.000000 9.274115 6.986126
vt 0.375000 0.000000
vt 0.375000 0.250000
vt 0.625000 0.250000
vt 0.625000 0.000000
vt 0.375000 0.300590
vt 0.625000 0.300590
vt 0.125000 0.500000
vt 0.125000 0.750000
vt 0.175590 0.750000
vt 0.175590 0.500000
vt 0.375000 0.000000
vt 0.375000 0.250000
vt 0.625000 0.250000
vt 0.625000 0.000000
vt 0.375000 0.300590
vt 0.625000 0.300590
vt 0.125000 0.500000
vt 0.125000 0.750000
vt 0.175590 0.750000
vt 0.175590 0.500000
vt 0.375000 0.500000
vt 0.375000 0.750000
vt 0.625000 0.750000
vt 0.625000 0.500000
vt 0.375000 1.000000
vt 0.556690 1.000000
vt 0.556690 0.750000
vt 0.625000 0.500000
vt 0.625000 0.681690
vt 0.875000 0.681690
vt 0.875000 0.500000
vt 0.375000 0.000000
vt 0.625000 0.000000
vt 0.625000 0.250000
vt 0.375000 0.250000
vt 0.625000 0.500000
vt 0.375000 0.500000
vt 0.606923 0.527461
vt 0.606923 0.507213
vt 0.416247 0.507213
vt 0.416247 0.550014
vt 0.592078 0.550014
vt 0.584257 0.561894
vt 0.404265 0.561894
vt 0.404265 0.688106
vt 0.375000 0.750000
vt 0.625000 0.750000
vt 0.625000 1.000000
vt 0.375000 1.000000
vt 0.125000 0.500000
vt 0.125000 0.750000
vt 0.875000 0.500000
vt 0.875000 0.750000
vt 0.584257 0.688106
vt 0.606923 0.550014
vt 0.606923 0.698990
vt 0.416247 0.698990
vt 0.416247 0.741791
vt 0.443310 0.250000
vt 0.625000 0.250000
vt 0.625000 0.000000
vt 0.443310 0.000000
vt 0.375000 0.318310
vt 0.625000 0.318310
vt 0.375000 0.949410
vt 0.375000 1.000000
vt 0.625000 1.000000
vt 0.625000 0.949410
vt 0.605536 0.949410
vt 0.824410 0.750000
vt 0.875000 0.750000
vt 0.875000 0.500000
vt 0.824410 0.500000
vt 0.824410 0.618272
vt 0.606923 0.741791
vt 0.375000 0.949410
vt 0.375000 1.000000
vt 0.625000 1.000000
vt 0.625000 0.949410
vt 0.824410 0.750000
vt 0.875000 0.750000
vt 0.875000 0.500000
vt 0.824410 0.500000
vn 1.0000 0.0000 0.0000
vn 0.0000 0.0000 1.0000
vn 0.0000 1.0000 0.0000
vn -1.0000 0.0000 0.0000
vn 0.0000 0.0000 -1.0000
vn 0.0000 -1.0000 0.0000
usemtl None
s off
f 1/1/1 3/2/1 4/3/1 2/4/1
f 3/2/2 34/5/2 33/6/2 4/3/2
f 3/7/3 1/8/3 31/9/3 34/10/3
f 5/11/1 7/12/1 8/13/1 6/14/1
f 7/12/2 29/15/2 28/16/2 8/13/2
f 7/17/3 5/18/3 25/19/3 29/20/3
f 12/21/1 10/22/1 9/23/1 11/24/1
f 10/22/3 12/25/3 23/26/3 24/27/3
f 10/28/2 24/29/2 21/30/2 9/31/2
f 13/32/4 14/33/4 16/34/4 15/35/4
f 15/35/5 16/34/5 20/36/5 19/37/5
f 19/37/1 20/36/1 27/38/1 28/39/1 29/40/1 25/41/1 30/42/1 21/43/1 24/44/1 23/45/1 17/46/1
f 17/46/2 18/47/2 14/48/2 13/49/2
f 15/50/6 19/37/6 17/46/6 13/51/6
f 20/36/3 16/52/3 14/53/3 18/47/3
f 17/46/1 23/45/1 22/54/1 21/43/1 30/42/1 26/55/1 33/56/1 34/57/1 31/58/1
f 22/59/6 11/60/6 9/61/6 21/62/6
f 23/63/5 12/21/5 11/24/5 22/64/5
f 25/65/5 5/66/5 6/67/5 26/68/5 30/69/5
f 26/70/6 6/71/6 8/72/6 28/73/6 27/74/6
f 32/75/1 33/56/1 26/55/1 27/38/1 20/36/1 18/47/1 17/46/1 31/58/1
f 31/76/5 1/77/5 2/78/5 32/79/5
f 32/80/6 2/81/6 4/82/6 33/83/6
